<svg xmlns="http://www.w3.org/2000/svg" xmlns:svg="http://www.w3.org/2000/svg" id="svg2" width="50.577" height="50.577" stroke-miterlimit="10" version="1.1" viewBox="0 0 50.577 50.577" style="fill:none;stroke:none;stroke-linecap:square;stroke-miterlimit:10"><path style="fill:#1700b3;fill-opacity:1;fill-rule:nonzero;stroke:#1700b3;stroke-width:0;stroke-linejoin:round;stroke-miterlimit:10;stroke-dasharray:none;stroke-opacity:1" id="path4186" d="m 31.77282,2.000005 8.640625,0 0,24.468753 c 0,3.364583 -0.760417,5.807292 -2.28125,7.328125 -1.520833,1.520833 -3.963542,1.796871 -7.328125,1.796871 l -11.03125,0 c -3.364583,0 -5.807292,-0.276038 -7.328125,-1.796871 -1.520833,-1.520833 -2.28125,-3.963542 -2.28125,-7.328125 l 0,-24.468753 8.640625,0 0,24.468753 c 0,1.927083 0.963542,2.890625 2.890625,2.890625 l 7.1875,0 c 1.927083,0 2.890625,-0.963542 2.890625,-2.890625 z"/><path style="fill:#1700b3;fill-opacity:1;fill-rule:evenodd;stroke:#1700b3;stroke-width:2;stroke-linecap:butt;stroke-linejoin:miter;stroke-miterlimit:10;stroke-dasharray:none;stroke-opacity:1" id="path4518" d="m 25.288445,35.593753 0,8.983147"/><circle style="fill:#1700b3;fill-opacity:1;fill-rule:evenodd;stroke:#1700b3;stroke-width:0;stroke-linecap:butt;stroke-linejoin:miter;stroke-miterlimit:10;stroke-dasharray:none;stroke-opacity:1" id="path4494" cx="25.288" cy="44.577" r="4"/></svg>